name Walk10.mot
datacolumns 19
datarows 20
range 1.56700000 1.58600000
endheader

                time	   L_ground_force_vx	   L_ground_force_vy	   L_ground_force_vz	   L_ground_force_px	   L_ground_force_py	   L_ground_force_pz	   R_ground_force_vx	   R_ground_force_vy	   R_ground_force_vz	   R_ground_force_px	   R_ground_force_py	   R_ground_force_pz	   L_ground_torque_x	   L_ground_torque_y	   L_ground_torque_z	   R_ground_torque_x	   R_ground_torque_y	   R_ground_torque_z	
          1.56700000	          0.00000000	          0.00000000	          0.00000000	          0.00000000	          0.00000000	          0.00000000	        -30.67398832	        701.49162557	         18.09107161	          0.35579197	          0.00000000	          0.08002066	          0.00000000	          0.00000000	          0.00000000	          0.00000000	          2.22014012	          0.00000000	
          1.56800000	          0.00000000	          0.00000000	          0.00000000	          0.00000000	          0.00000000	          0.00000000	        -30.24818426	        699.52021288	         17.90032873	          0.35619551	          0.00000000	          0.07991342	          0.00000000	          0.00000000	          0.00000000	          0.00000000	          2.14216363	          0.00000000	
          1.56900000	          0.00000000	          0.00000000	          0.00000000	          0.00000000	          0.00000000	          0.00000000	        -29.84299840	        697.54720409	         17.71053808	          0.35656120	          0.00000000	          0.07983137	          0.00000000	          0.00000000	          0.00000000	          0.00000000	          2.06500342	          0.00000000	
          1.57000000	          0.00000000	          0.00000000	          0.00000000	          0.00000000	          0.00000000	          0.00000000	        -29.45163465	        695.62050388	         17.51847037	          0.35692729	          0.00000000	          0.07978196	          0.00000000	          0.00000000	          0.00000000	          0.00000000	          1.98753213	          0.00000000	
          1.57100000	          0.00000000	          0.00000000	          0.00000000	          0.00000000	          0.00000000	          0.00000000	        -29.06683118	        693.79047524	         17.32176223	          0.35732508	          0.00000000	          0.07976533	          0.00000000	          0.00000000	          0.00000000	          0.00000000	          1.91006609	          0.00000000	
          1.57200000	          0.00000000	          0.00000000	          0.00000000	          0.00000000	          0.00000000	          0.00000000	        -28.68196579	        692.07840827	         17.11871985	          0.35775113	          0.00000000	          0.07977961	          0.00000000	          0.00000000	          0.00000000	          0.00000000	          1.83213398	          0.00000000	
          1.57300000	          0.00000000	          0.00000000	          0.00000000	          0.00000000	          0.00000000	          0.00000000	        -28.28820579	        690.46797697	         16.90979600	          0.35819741	          0.00000000	          0.07980576	          0.00000000	          0.00000000	          0.00000000	          0.00000000	          1.75279164	          0.00000000	
          1.57400000	          0.00000000	          0.00000000	          0.00000000	          0.00000000	          0.00000000	          0.00000000	        -27.87734836	        688.92278584	         16.69725264	          0.35867526	          0.00000000	          0.07980584	          0.00000000	          0.00000000	          0.00000000	          0.00000000	          1.67425492	          0.00000000	
          1.57500000	          0.00000000	          0.00000000	          0.00000000	          0.00000000	          0.00000000	          0.00000000	        -27.45074458	        687.41651856	         16.48752957	          0.35919250	          0.00000000	          0.07975171	          0.00000000	          0.00000000	          0.00000000	          0.00000000	          1.59990387	          0.00000000	
          1.57600000	          0.00000000	          0.00000000	          0.00000000	          0.00000000	          0.00000000	          0.00000000	        -27.01942715	        685.93500069	         16.29571108	          0.35972917	          0.00000000	          0.07964648	          0.00000000	          0.00000000	          0.00000000	          0.00000000	          1.52849071	          0.00000000	
          1.57700000	          0.00000000	          0.00000000	          0.00000000	          0.00000000	          0.00000000	          0.00000000	        -26.59610629	        684.46335552	         16.13959206	          0.36024338	          0.00000000	          0.07951821	          0.00000000	          0.00000000	          0.00000000	          0.00000000	          1.45453283	          0.00000000	
          1.57800000	          0.00000000	          0.00000000	          0.00000000	          0.00000000	          0.00000000	          0.00000000	        -26.18876312	        683.00197780	         16.02669086	          0.36069475	          0.00000000	          0.07940006	          0.00000000	          0.00000000	          0.00000000	          0.00000000	          1.37595765	          0.00000000	
          1.57900000	          0.00000000	          0.00000000	          0.00000000	          0.00000000	          0.00000000	          0.00000000	        -25.79462089	        681.56722076	         15.95049773	          0.36106788	          0.00000000	          0.07930931	          0.00000000	          0.00000000	          0.00000000	          0.00000000	          1.29869798	          0.00000000	
          1.58000000	          0.00000000	          0.00000000	          0.00000000	          0.00000000	          0.00000000	          0.00000000	        -25.40458740	        680.15051688	         15.90044858	          0.36137728	          0.00000000	          0.07923596	          0.00000000	          0.00000000	          0.00000000	          0.00000000	          1.22992500	          0.00000000	
          1.58100000	          0.00000000	          0.00000000	          0.00000000	          0.00000000	          0.00000000	          0.00000000	        -25.01826651	        678.71421533	         15.87126667	          0.36165185	          0.00000000	          0.07915508	          0.00000000	          0.00000000	          0.00000000	          0.00000000	          1.17027152	          0.00000000	
          1.58200000	          0.00000000	          0.00000000	          0.00000000	          0.00000000	          0.00000000	          0.00000000	        -24.64742315	        677.25739120	         15.85991450	          0.36192264	          0.00000000	          0.07905918	          0.00000000	          0.00000000	          0.00000000	          0.00000000	          1.11661182	          0.00000000	
          1.58300000	          0.00000000	          0.00000000	          0.00000000	          0.00000000	          0.00000000	          0.00000000	        -24.30492363	        675.84962898	         15.86003910	          0.36222448	          0.00000000	          0.07896971	          0.00000000	          0.00000000	          0.00000000	          0.00000000	          1.06700439	          0.00000000	
          1.58400000	          0.00000000	          0.00000000	          0.00000000	          0.00000000	          0.00000000	          0.00000000	        -23.99313436	        674.55588835	         15.86453436	          0.36258962	          0.00000000	          0.07890490	          0.00000000	          0.00000000	          0.00000000	          0.00000000	          1.01883157	          0.00000000	
          1.58500000	          0.00000000	          0.00000000	          0.00000000	          0.00000000	          0.00000000	          0.00000000	        -23.70378736	        673.36096829	         15.87117324	          0.36303225	          0.00000000	          0.07885536	          0.00000000	          0.00000000	          0.00000000	          0.00000000	          0.96580260	          0.00000000	
          1.58600000	          0.00000000	          0.00000000	          0.00000000	          0.00000000	          0.00000000	          0.00000000	        -23.42845001	        672.20380638	         15.88246849	          0.36355000	          0.00000000	          0.07880649	          0.00000000	          0.00000000	          0.00000000	          0.00000000	          0.90167405	          0.00000000	
